<?xml version="1.0" encoding="UTF-8" standalone="no"?>
<svg
   height="18"
   fill="#000000"
   version="1.1"
   id="Layer_1"
   viewBox="0 0 18 72"
   enable-background="new 0 0 72 72"
   sodipodi:docname="32-Bit.svg"
   width="18"
   inkscape:version="1.2.2 (732a01da63, 2022-12-09)"
   xmlns:inkscape="http://www.inkscape.org/namespaces/inkscape"
   xmlns:sodipodi="http://sodipodi.sourceforge.net/DTD/sodipodi-0.dtd"
   xmlns="http://www.w3.org/2000/svg"
   xmlns:svg="http://www.w3.org/2000/svg">
  <defs
     id="defs89" />
  <sodipodi:namedview
     id="namedview87"
     pagecolor="#505050"
     bordercolor="#eeeeee"
     borderopacity="1"
     inkscape:showpageshadow="0"
     inkscape:pageopacity="0"
     inkscape:pagecheckerboard="0"
     inkscape:deskcolor="#505050"
     showgrid="false"
     inkscape:zoom="23.766645"
     inkscape:cx="9.8036557"
     inkscape:cy="10.05611"
     inkscape:window-width="1920"
     inkscape:window-height="1009"
     inkscape:window-x="-8"
     inkscape:window-y="-8"
     inkscape:window-maximized="1"
     inkscape:current-layer="g84" />
  <g
     id="g84"
     transform="translate(-26.657858,-0.29752064)">
    <rect
       style="fill:#c87137;stroke-width:4"
       id="rect604"
       width="34.838741"
       height="34.922894"
       x="19.265169"
       y="18.642559" />
    <g
       id="g10"
       style="fill:#552200">
      <g
         id="g6"
         style="fill:#552200">
        <path
           d="M 49.83,56.5 H 22.17 c -3.927,0 -5.965,-2.426 -5.965,-5.899 V 22.94 c 0,-3.513 2.147,-7.44 5.965,-7.44 h 27.66 c 3.817,0 7.375,3.928 7.375,7.44 V 50.6 c 0,3.474 -3.448,5.9 -7.375,5.9 z m -27.66,-37 c -1.298,0 -1.965,1.769 -1.965,3.44 V 50.6 c 0,1.652 0.968,1.899 1.965,1.899 h 27.66 c 0.997,0 3.375,-0.247 3.375,-1.899 V 22.94 c 0,-1.672 -2.077,-3.44 -3.375,-3.44 z"
           id="path4"
           style="fill:#552200" />
      </g>
      <text
         xml:space="preserve"
         style="font-size:21.3333px;font-family:Arial;-inkscape-font-specification:Arial;fill:#552200;stroke-width:4"
         x="25.913143"
         y="43.719723"
         id="text760"><tspan
           sodipodi:role="line"
           id="tspan758"
           style="font-style:normal;font-variant:normal;font-weight:bold;font-stretch:normal;font-size:21.3333px;font-family:Bahnschrift;-inkscape-font-specification:'Bahnschrift Bold';fill:#552200;stroke-width:4"
           x="25.913143"
           y="43.719723">32</tspan></text>
    </g>
    <g
       id="g28"
       style="fill:#552200">
      <g
         id="g14"
         style="fill:#552200">
        <path
           d="m 67.5,23.5 h -5 c -1.104,0 -2,-0.896 -2,-2 0,-1.104 0.896,-2 2,-2 h 5 c 1.104,0 2,0.896 2,2 0,1.104 -0.896,2 -2,2 z"
           id="path12"
           style="fill:#552200" />
      </g>
      <g
         id="g18"
         style="fill:#552200">
        <path
           d="m 67.5,34.5 h -5 c -1.104,0 -2,-0.896 -2,-2 0,-1.104 0.896,-2 2,-2 h 5 c 1.104,0 2,0.896 2,2 0,1.104 -0.896,2 -2,2 z"
           id="path16"
           style="fill:#552200" />
      </g>
      <g
         id="g22"
         style="fill:#552200">
        <path
           d="m 67.5,44.5 h -5 c -1.104,0 -2,-0.896 -2,-2 0,-1.104 0.896,-2 2,-2 h 5 c 1.104,0 2,0.896 2,2 0,1.104 -0.896,2 -2,2 z"
           id="path20"
           style="fill:#552200" />
      </g>
      <g
         id="g26"
         style="fill:#552200">
        <path
           d="m 67.5,53.5 h -5 c -1.104,0 -2,-0.896 -2,-2 0,-1.104 0.896,-2 2,-2 h 5 c 1.104,0 2,0.896 2,2 0,1.104 -0.896,2 -2,2 z"
           id="path24"
           style="fill:#552200" />
      </g>
    </g>
    <g
       id="g46"
       style="fill:#552200">
      <g
         id="g32"
         style="fill:#552200">
        <path
           d="m 21.205,12.5 c -1.104,0 -2,-0.896 -2,-2 v -5 c 0,-1.104 0.896,-2 2,-2 1.104,0 2,0.896 2,2 v 5 c 0,1.104 -0.895,2 -2,2 z"
           id="path30"
           style="fill:#552200" />
      </g>
      <g
         id="g36"
         style="fill:#552200">
        <path
           d="m 31.205,12.5 c -1.104,0 -2,-0.896 -2,-2 v -5 c 0,-1.104 0.896,-2 2,-2 1.104,0 2,0.896 2,2 v 5 c 0,1.104 -0.895,2 -2,2 z"
           id="path34"
           style="fill:#552200" />
      </g>
      <g
         id="g40"
         style="fill:#552200">
        <path
           d="m 42.205,12.5 c -1.104,0 -2,-0.896 -2,-2 v -5 c 0,-1.104 0.896,-2 2,-2 1.104,0 2,0.896 2,2 v 5 c 0,1.104 -0.895,2 -2,2 z"
           id="path38"
           style="fill:#552200" />
      </g>
      <g
         id="g44"
         style="fill:#552200">
        <path
           d="m 51.205,12.5 c -1.104,0 -2,-0.896 -2,-2 v -5 c 0,-1.104 0.896,-2 2,-2 1.104,0 2,0.896 2,2 v 5 c 0,1.104 -0.895,2 -2,2 z"
           id="path42"
           style="fill:#552200" />
      </g>
    </g>
    <g
       id="g64"
       style="fill:#552200">
      <g
         id="g50"
         style="fill:#552200">
        <path
           d="m 21.205,68.5 c -1.104,0 -2,-0.896 -2,-2 v -5 c 0,-1.104 0.896,-2 2,-2 1.104,0 2,0.896 2,2 v 5 c 0,1.104 -0.895,2 -2,2 z"
           id="path48"
           style="fill:#552200" />
      </g>
      <g
         id="g54"
         style="fill:#552200">
        <path
           d="m 31.205,68.5 c -1.104,0 -2,-0.896 -2,-2 v -5 c 0,-1.104 0.896,-2 2,-2 1.104,0 2,0.896 2,2 v 5 c 0,1.104 -0.895,2 -2,2 z"
           id="path52"
           style="fill:#552200" />
      </g>
      <g
         id="g58"
         style="fill:#552200">
        <path
           d="m 42.205,68.5 c -1.104,0 -2,-0.896 -2,-2 v -5 c 0,-1.104 0.896,-2 2,-2 1.104,0 2,0.896 2,2 v 5 c 0,1.104 -0.895,2 -2,2 z"
           id="path56"
           style="fill:#552200" />
      </g>
      <g
         id="g62"
         style="fill:#552200">
        <path
           d="m 51.205,68.5 c -1.104,0 -2,-0.896 -2,-2 v -5 c 0,-1.104 0.896,-2 2,-2 1.104,0 2,0.896 2,2 v 5 c 0,1.104 -0.895,2 -2,2 z"
           id="path60"
           style="fill:#552200" />
      </g>
    </g>
    <g
       id="g82"
       style="fill:#552200">
      <g
         id="g68"
         style="fill:#552200">
        <path
           d="m 9.5,23.5 h -5 c -1.104,0 -2,-0.896 -2,-2 0,-1.104 0.896,-2 2,-2 h 5 c 1.104,0 2,0.896 2,2 0,1.104 -0.896,2 -2,2 z"
           id="path66"
           style="fill:#552200" />
      </g>
      <g
         id="g72"
         style="fill:#552200">
        <path
           d="m 9.5,34.5 h -5 c -1.104,0 -2,-0.896 -2,-2 0,-1.104 0.896,-2 2,-2 h 5 c 1.104,0 2,0.896 2,2 0,1.104 -0.896,2 -2,2 z"
           id="path70"
           style="fill:#552200" />
      </g>
      <g
         id="g76"
         style="fill:#552200">
        <path
           d="m 9.5,44.5 h -5 c -1.104,0 -2,-0.896 -2,-2 0,-1.104 0.896,-2 2,-2 h 5 c 1.104,0 2,0.896 2,2 0,1.104 -0.896,2 -2,2 z"
           id="path74"
           style="fill:#552200" />
      </g>
      <g
         id="g80"
         style="fill:#552200">
        <path
           d="m 9.5,53.5 h -5 c -1.104,0 -2,-0.896 -2,-2 0,-1.104 0.896,-2 2,-2 h 5 c 1.104,0 2,0.896 2,2 0,1.104 -0.896,2 -2,2 z"
           id="path78"
           style="fill:#552200" />
      </g>
    </g>
  </g>
</svg>
