<?xml version="1.0" encoding="utf-8"?>
<svg height="18" fill="#000000" version="1.1" id="Layer_1" viewBox="0 0 72 72" enable-background="new 0 0 72 72" xmlns="http://www.w3.org/2000/svg">
  <rect width="72" height="72" style="fill: rgb(255, 255, 255);"/>
  <g>
    <g>
      <g>
        <path d="M49.83,56.5H22.17c-3.927,0-5.965-2.426-5.965-5.899V22.94c0-3.513,2.147-7.44,5.965-7.44h27.66 c3.817,0,7.375,3.928,7.375,7.44v27.66C57.205,54.074,53.757,56.5,49.83,56.5z M22.17,19.5c-1.298,0-1.965,1.769-1.965,3.44 v27.66c0,1.652,0.968,1.899,1.965,1.899h27.66c0.997,0,3.375-0.247,3.375-1.899V22.94c0-1.672-2.077-3.44-3.375-3.44H22.17z"/>
      </g>
      <text style="fill: rgb(51, 51, 51); font-family: &quot;Cascadia Mono&quot;; font-size: 19.6304px; font-weight: 700; line-height: 31.4087px; white-space: pre;" transform="matrix(1.067774, 0, 0, 1.069767, -1.45675, 2.629393)" x="23.577" y="38.024">32</text>
    </g>
    <g>
      <g>
        <path d="M67.5,23.5h-5c-1.104,0-2-0.896-2-2s0.896-2,2-2h5c1.104,0,2,0.896,2,2S68.604,23.5,67.5,23.5z"/>
      </g>
      <g>
        <path d="M67.5,34.5h-5c-1.104,0-2-0.896-2-2s0.896-2,2-2h5c1.104,0,2,0.896,2,2S68.604,34.5,67.5,34.5z"/>
      </g>
      <g>
        <path d="M67.5,44.5h-5c-1.104,0-2-0.896-2-2s0.896-2,2-2h5c1.104,0,2,0.896,2,2S68.604,44.5,67.5,44.5z"/>
      </g>
      <g>
        <path d="M67.5,53.5h-5c-1.104,0-2-0.896-2-2s0.896-2,2-2h5c1.104,0,2,0.896,2,2S68.604,53.5,67.5,53.5z"/>
      </g>
    </g>
    <g>
      <g>
        <path d="M21.205,12.5c-1.104,0-2-0.896-2-2v-5c0-1.104,0.896-2,2-2s2,0.896,2,2v5C23.205,11.604,22.31,12.5,21.205,12.5z"/>
      </g>
      <g>
        <path d="M31.205,12.5c-1.104,0-2-0.896-2-2v-5c0-1.104,0.896-2,2-2s2,0.896,2,2v5C33.205,11.604,32.31,12.5,31.205,12.5z"/>
      </g>
      <g>
        <path d="M42.205,12.5c-1.104,0-2-0.896-2-2v-5c0-1.104,0.896-2,2-2s2,0.896,2,2v5C44.205,11.604,43.31,12.5,42.205,12.5z"/>
      </g>
      <g>
        <path d="M51.205,12.5c-1.104,0-2-0.896-2-2v-5c0-1.104,0.896-2,2-2s2,0.896,2,2v5C53.205,11.604,52.31,12.5,51.205,12.5z"/>
      </g>
    </g>
    <g>
      <g>
        <path d="M21.205,68.5c-1.104,0-2-0.896-2-2v-5c0-1.104,0.896-2,2-2s2,0.896,2,2v5C23.205,67.604,22.31,68.5,21.205,68.5z"/>
      </g>
      <g>
        <path d="M31.205,68.5c-1.104,0-2-0.896-2-2v-5c0-1.104,0.896-2,2-2s2,0.896,2,2v5C33.205,67.604,32.31,68.5,31.205,68.5z"/>
      </g>
      <g>
        <path d="M42.205,68.5c-1.104,0-2-0.896-2-2v-5c0-1.104,0.896-2,2-2s2,0.896,2,2v5C44.205,67.604,43.31,68.5,42.205,68.5z"/>
      </g>
      <g>
        <path d="M51.205,68.5c-1.104,0-2-0.896-2-2v-5c0-1.104,0.896-2,2-2s2,0.896,2,2v5C53.205,67.604,52.31,68.5,51.205,68.5z"/>
      </g>
    </g>
    <g>
      <g>
        <path d="M9.5,23.5h-5c-1.104,0-2-0.896-2-2s0.896-2,2-2h5c1.104,0,2,0.896,2,2S10.604,23.5,9.5,23.5z"/>
      </g>
      <g>
        <path d="M9.5,34.5h-5c-1.104,0-2-0.896-2-2s0.896-2,2-2h5c1.104,0,2,0.896,2,2S10.604,34.5,9.5,34.5z"/>
      </g>
      <g>
        <path d="M9.5,44.5h-5c-1.104,0-2-0.896-2-2s0.896-2,2-2h5c1.104,0,2,0.896,2,2S10.604,44.5,9.5,44.5z"/>
      </g>
      <g>
        <path d="M9.5,53.5h-5c-1.104,0-2-0.896-2-2s0.896-2,2-2h5c1.104,0,2,0.896,2,2S10.604,53.5,9.5,53.5z"/>
      </g>
    </g>
  </g>
</svg>